 <!DOCTYPE svg PUBLIC "-//W3C//DTD SVG 1.1//EN" "http://www.w3.org/Graphics/SVG/1.1/DTD/svg11.dtd">
<svg xmlns="http://www.w3.org/2000/svg" width="865.76" height="682.89" viewBox="0 0 865.76 682.89">
<defs>
<style xmlns="http://www.w3.org/1999/xhtml">*, ::after, ::before { box-sizing: border-box; }
img, svg { vertical-align: middle; }
</style>
<style xmlns="http://www.w3.org/1999/xhtml">*, body, html { -webkit-font-smoothing: antialiased; }
img, svg { max-width: 100%; }
</style>
</defs>
<ellipse cx="502.93" cy="605.17" rx="202.85" ry="34.77" fill="#0071f2" data-primary="true"/>
<ellipse cx="502.93" cy="605.17" rx="202.85" ry="34.77" fill="#fff" opacity="0.7"/>
<path d="M694.89,294.5C617.15,439.43,497.27,455.32,497.27,455.32a569,569,0,0,1-58.34,7.27q-1.86.14-3.72.24c-124.3,7.81-195.25-34.95-234.65-77.52-40.66-43.94-58-105-44.72-163.37,22.63-99.82,119-132,119-132,20.84-8.25,43.36-11.49,65.1-11.82,57.67-.92,109.7,18.52,109.7,18.52a447.94,447.94,0,0,0,46.76,13.25c32.21,7.11,47.51,5.63,47.51,5.63,56.61-9.19,95.25-.08,95.25-.08,55.06,11.63,71.42,52.92,74.59,89.32A160.62,160.62,0,0,1,694.89,294.5Z" fill="#0071f2" data-primary="true"/>
<path d="M694.89,294.5C617.15,439.43,497.27,455.32,497.27,455.32a569,569,0,0,1-58.34,7.27q-1.86.14-3.72.24C380.44,466.27,336,459.9,300.12,448a248.08,248.08,0,0,1-48-21.53,7.44,7.44,0,0,1-.66-.38c-1.87-1.09-3.71-2.21-5.51-3.34a221.92,221.92,0,0,1-45.36-37.48c-40.66-43.94-58-105-44.72-163.37,22.63-99.82,119-132,119-132,20.84-8.25,43.36-11.49,65.1-11.82,57.67-.92,109.7,18.52,109.7,18.52a447.94,447.94,0,0,0,46.76,13.25c32.21,7.11,47.51,5.63,47.51,5.63,56.61-9.19,95.25-.08,95.25-.08,55.06,11.63,71.42,52.92,74.59,89.32A160.62,160.62,0,0,1,694.89,294.5Z" fill="#fff" opacity="0.7"/>
<path d="M496.37,109.88,438.93,462.59l-1.49,9.21-2.23-9L339.91,78.11c57.67-.92,109.7,18.52,109.7,18.52A447.94,447.94,0,0,0,496.37,109.88Z" fill="#fff" opacity="0.2"/>
<path d="M558,473.61s-1.16,5.8-17.39,3.48c0,0-12.75-1.16-11.59,8.11,0,0-.33,6.33,7.37,6.64l31.76.67s10.72-.35,14.19-6.15C582.33,486.36,562.63,472.45,558,473.61Z" fill="#2f2e41" data-secondary="true"/>
<path d="M511.69,389.71s-1.22,9.71-10.5,10.87c0,0-8.94-1.64-7.37,6.72h46L532.31,371l-3.3,1.75S511.76,389.26,511.69,389.71Z" fill="#2f2e41" data-secondary="true"/>
<path d="M635.21,266a8.72,8.72,0,0,1-3,4.81l-18.55,13.91s-5.49,52.16-9.7,74.76c0,0-15.8,111.86-21.6,126.93,0,0-17.38-12.75-24.34-12.75l8.12-83.46L569.58,316s-1.16-25.51-4.63-27.82a2.75,2.75,0,0,0-1.23-.55c-2.52-.61-9.54-.42-26.59,9.82l-24.35,19.7,13.91,40.57s5.14,10.27,4.2,20c-.78,8.08-8.15,14.18-16.17,12.9a10.88,10.88,0,0,1-6.25-3.16,12.42,12.42,0,0,1-1.48-1.93l-26.66-56.79s-8.12-20.87,12.75-38.26l41.73-35.93L536,238.3l-7-16.23-24.34-30.13,1.16-58,17.39,25.5s25.5-34.77,42.89-25.5l12.75,7L602,129.34s16.23-3.48,25.5,24.34c0,0,11.59,34.78,5.8,76.51,0,0-1.16,9.27-4.64,15.07l5.41,10.82A13.82,13.82,0,0,1,635.21,266Z" fill="#0071f2" data-primary="true"/>
<polygon points="505.25 171.65 531.41 211.59 529.01 222.07 504.67 191.94 505.25 171.65" opacity="0.2"/>
<polygon points="572.71 121.3 572.71 131.57 576.54 135.14 595.34 127.08 594.6 110.56 572.71 121.3" fill="#f9b499"/>
<path d="M595.34,127.08l4.38-2.37,2.32,4.63s-19.71,49.85-23.18,70.71l-1.16,15.07H559.5l.81-25.5,5.8-55.64,6.6-4.72v2.31l3.83,3.57Z" fill="#fff"/>
<path d="M576,148.65l2.79-2.68-3.37-3.88-5,3.88,1.55,2h0s-6.27,40.51-2.55,67.17h8.35l1.16-15.07,1-5.17Z" fill="#2f2e41" data-secondary="true"/>
<path d="M564.5,149.34c3.55-3,7.25-5.73,11-8.43,1.45,1.55,2.85,3.15,4.25,4.74,1.23,1.38,2.42,2.79,3.62,4.2l-1.71,0A267.76,267.76,0,0,1,602,129.34a269.77,269.77,0,0,1-19.6,23c-2.63-3.17-5.24-6.37-7.75-9.63l1.18.17c-3.72,2.27-7.48,4.48-11.37,6.5Z" fill="#0071f2" data-primary="true"/>
<path d="M564.5,149.34c3.55-3,7.25-5.73,11-8.43,1.45,1.55,2.85,3.15,4.25,4.74,1.23,1.38,2.42,2.79,3.62,4.2l-1.71,0A267.76,267.76,0,0,1,602,129.34a269.77,269.77,0,0,1-19.6,23c-2.63-3.17-5.24-6.37-7.75-9.63l1.18.17c-3.72,2.27-7.48,4.48-11.37,6.5Z" fill="#fff" opacity="0.3"/>
<path d="M421.21,108.48,505.84,105V229.76s1.15,14.34-17.4,16.66l-67.23-3.88s6.49-18,6.93-54.75a73.51,73.51,0,0,0-.29-7.42Z" fill="#e6e6e6"/>
<path d="M435.12,138a.58.58,0,0,1,0-1.16l59.71-2.32h0a.58.58,0,0,1,.58.56.59.59,0,0,1-.56.6L435.14,138Z" fill="#f2f2f2"/>
<path d="M435.12,148.47a.58.58,0,0,1,0-1.16L494.81,145h0a.58.58,0,0,1,0,1.16l-59.71,2.32Z" fill="#f2f2f2"/>
<path d="M435.12,158.9a.58.58,0,0,1,0-1.16l59.71-2.32h0a.58.58,0,0,1,0,1.16l-59.71,2.32Z" fill="#f2f2f2"/>
<path d="M435.12,169.33a.57.57,0,0,1-.58-.55.6.6,0,0,1,.56-.61l59.71-2.31h0a.57.57,0,0,1,.58.55.58.58,0,0,1-.56.6l-59.71,2.32Z" fill="#f2f2f2"/>
<path d="M435.12,179.77a.58.58,0,0,1,0-1.16l59.71-2.32h0a.57.57,0,0,1,.58.55.6.6,0,0,1-.56.61l-59.71,2.31Z" fill="#f2f2f2"/>
<path d="M435.12,190.2a.58.58,0,0,1,0-1.16l59.71-2.32a.54.54,0,0,1,.6.56.58.58,0,0,1-.56.6l-59.71,2.32Z" fill="#f2f2f2"/>
<path d="M421.35,242.5c2.74-.77,46-14.13,70.64-91.92l9.57-45.4,4.28-.18V229.76s1.15,14.34-17.4,16.66l-67.09-3.87S421.32,242.51,421.35,242.5Z" opacity="0.05"/>
<path d="M583.27,204.49q8.6-15.93,17.62-31.62l1.47-2.59a.32.32,0,0,0,0-.27c-1-.89-5.24-4-6.36-4.88-.63-.5-2.67-2.07-3.28-2.54a.61.61,0,0,1,.39-1.15c2.64,1.06,7.35,3.06,10,4.14.28.13.47.1.6-.15l.58-1.39c3.59-8.61,8.08-19.24,11.84-27.74-3.44,9.23-7.81,20.33-11.48,29.52a1.42,1.42,0,0,1-1.93.71l-2.79-1.13-7.08-2.87a.51.51,0,0,0,.48-.9l.4.3c2.46,1.85,6.51,5,9,6.89a1.5,1.5,0,0,1,.66,1.94c-6.56,11.31-13.21,22.59-20.06,33.73Z" fill="#fff" opacity="0.3"/>
<path d="M605.52,175.71c-2.7,12-3.56,25.23,1.16,36.87a45.85,45.85,0,0,0,2.31,4.86c-8.65-11.91-8.2-28.34-3.47-41.73Z" opacity="0.2"/>
<path d="M577.77,214.1c10.46-3.16,23.55-2.56,31.84,5.29a17.93,17.93,0,0,1,2.86,3.84,32.22,32.22,0,0,0-3.6-3c-9.09-6.1-20.48-6.27-31.1-6.16Z" opacity="0.2"/>
<path d="M535.15,249.73l-.34,4.8s3,9.83,9.75,11.39a2.51,2.51,0,0,0,2.67-1.12l14.18-22.59-6.1-1.94S551.72,247.26,535.15,249.73Z" opacity="0.2"/>
<path d="M586.29,263.48S606.9,286,630.55,272l-16.92,12.69-6.24,52.27-10,66.68-7.89,48.89-7.19,33.85-16-10a21.79,21.79,0,0,1,4.84-.55,5.36,5.36,0,0,0,5.37-4.15l11.56-52.56s4.64-1.16,5.79-19.71c0,0-1.27-34.27,4.53-43.24,0,0,3.38-10.71,0-30.1A102.26,102.26,0,0,1,596.24,280S586.77,271.27,586.29,263.48Z" opacity="0.2"/>
<polygon points="597.33 263.48 616.11 250.73 621.13 249.64 616.11 254.81 597.33 263.48" opacity="0.2"/>
<path d="M563.72,287.6c-2.52-.61-9.54-.42-26.59,9.82l-24.35,19.7,13.91,40.57s5.14,10.27,4.2,20c-.78,8.08-8.15,14.18-16.17,12.9a10.88,10.88,0,0,1-6.25-3.16h0s12,2.57,15.76-6.53a12.6,12.6,0,0,0,.07-8.89l-10-28.46a37.16,37.16,0,0,0-3.16-6.76c-.42-.71-.89-1.57-1.35-2.56a28.12,28.12,0,0,1,9.49-34.65C533,289.85,563.66,270.09,563.72,287.6Z" opacity="0.2"/>
<path d="M523.22,159.48c4.37,6.44,7.16,13.84,9.45,21.25-3.78-6.82-6.49-14.07-9.45-21.25Z" opacity="0.2"/>
<path d="M549.88,137.46c.65,6.26,1.18,13.88,1.64,20.17.1.27.6.15.83.17l8.84-.06a1,1,0,0,1,.85,1.65L558,166.23c-.23.42-.18.19-.15.61.94,7.54,1.82,15.21,2.51,22.78-1.31-7.48-2.47-15.12-3.53-22.65a1.58,1.58,0,0,1,.27-1.27l4-6.89c.14-.24,0,0,.06,0a.15.15,0,0,0,.12.11l-6.89,0-2,0a2.23,2.23,0,0,1-1.24-.19,1.34,1.34,0,0,1-.53-.6,40,40,0,0,1-.3-4.65c-.15-4.68-.4-11.33-.4-15.94Z" fill="#fff" opacity="0.3"/>
<path d="M392,600.63l67.56-299.55a5.44,5.44,0,0,0-3.6-6.38h0a5.46,5.46,0,0,0-7.06,4L382.05,598.4a5.08,5.08,0,0,0,5,6.19h0A5.08,5.08,0,0,0,392,600.63Z" fill="#3f4347"/>
<path d="M590,599.12,528.4,298.28a5.47,5.47,0,0,0-5.91-4.34h0a5.47,5.47,0,0,0-4.8,6.54L580,601.17a5.07,5.07,0,0,0,7.06,3.6h0A5.08,5.08,0,0,0,590,599.12Z" fill="#3f4347"/>
<path d="M628.2,592.17,566.65,291.32a5.47,5.47,0,0,0-5.91-4.34h0a5.47,5.47,0,0,0-4.79,6.55l62.29,300.69a5.09,5.09,0,0,0,7.07,3.6h0A5.1,5.1,0,0,0,628.2,592.17Z" fill="#2e3135"/>
<path d="M433.2,601l64-300.33a5.46,5.46,0,0,0-3.68-6.34h0a5.46,5.46,0,0,0-7,4.07l-63.22,300.5a5.09,5.09,0,0,0,5,6.13h0A5.09,5.09,0,0,0,433.2,601Z" fill="#2e3135"/>
<polygon points="449.61 345.07 526.93 345.07 524.99 335.7 451.36 335.7 449.61 345.07" fill="#3f4347"/>
<polygon points="447 356.66 478.77 366.5 476.34 374.92 444.94 365.79 447 356.66" fill="#3f4347"/>
<polygon points="540.34 356.66 571.9 348.42 574.04 356.66 542.21 365.79 540.34 356.66" fill="#3f4347"/>
<polygon points="555.83 437.66 592.07 428.81 594.34 437.66 558.92 447.47 555.83 437.66" fill="#3f4347"/>
<polygon points="573.81 520.24 606.67 510.7 608.72 520.24 575.63 529.16 573.81 520.24" fill="#3f4347"/>
<polygon points="416.51 491.85 557.34 491.85 559.71 503.29 413.92 503.29 416.51 491.85" fill="#3f4347"/>
<polygon points="446.71 516.5 413.92 506.99 411.41 514.44 444.94 525.42 446.71 516.5" fill="#3f4347"/>
<polygon points="435.58 407.3 539.82 407.3 541.68 416.26 433.56 416.26 435.58 407.3" fill="#3f4347"/>
<polygon points="430.23 431.02 464.1 441.15 462.94 449.27 428.17 439.99 430.23 431.02" fill="#3f4347"/>
<ellipse cx="571.9" cy="88.19" rx="24.34" ry="36.51" fill="#f9b499"/>
<path d="M607.13,70.5c-.62,4.94-3,11.62-8.57,20.59,0,0,0,33.62-24.34,35.93,0,0-24,1.91-21.84-17,0,0,2.13,3.1,6.77-.37s11.59-4.64,18.55,0c0,0,10.46,5.5,15-9.1a51.29,51.29,0,0,0,1.95-12.35s-6.14-6-5.46-21.11A1.09,1.09,0,0,0,587.67,66l-.06,0a3,3,0,0,1-1.72.33,2.72,2.72,0,0,1-1.35-.48c-1.42-1-4.35-1-10.32,4.33,0,0-14.29,19.78-35.38,10.12a1.21,1.21,0,0,1-.33-2,19.64,19.64,0,0,0,5.86-9.75,27.53,27.53,0,0,1,4-9.41c5.12-7.37,16.24-18.37,36-15.9.52.07,1,.15,1.54.25a21,21,0,0,1,13.52,8.51A18.54,18.54,0,0,1,602,57.48S608.43,60.13,607.13,70.5Z" fill="#2f2e41" data-secondary="true"/>
<path d="M585.89,66.38a2.72,2.72,0,0,1-1.35-.48c-1.42-1-4.35-1-10.32,4.33,0,0-14.29,19.78-35.38,10.12a1.21,1.21,0,0,1-.33-2s16,3.46,24.12-3.5C562.63,74.86,580.17,57.9,585.89,66.38Z" opacity="0.2"/>
<path d="M598.56,91.09a22.22,22.22,0,0,1-5.84,9.45,51.29,51.29,0,0,0,1.95-12.35s-6.14-6-5.46-21.11A1.09,1.09,0,0,0,587.67,66l-.06,0a3,3,0,0,1-1.72.33s5.72-7.75,9.19,1.53C595.08,67.91,602,80.66,598.56,91.09Z" opacity="0.2"/>
<path d="M607.13,70.5c-6.49,2.59-8.57-9.55-8.57-9.55a33.54,33.54,0,0,0-12.65-17.4,21,21,0,0,1,13.52,8.51A18.54,18.54,0,0,1,602,57.48S608.43,60.13,607.13,70.5Z" opacity="0.2"/>
<ellipse cx="599.72" cy="97.47" rx="5.8" ry="7.53" fill="#f9b499"/>
<path d="M543.88,236.27c18.37,5.14,70.07,22.47,84.82,9-15.31,16.51-66.71-.86-84.82-9Z" fill="#0071f2" data-primary="true"/>
<path d="M543.88,236.27c18.37,5.14,70.07,22.47,84.82,9-15.31,16.51-66.71-.86-84.82-9Z" opacity="0.2"/>
<path d="M543.88,217.44v18.83s-7,2.67-13.81,1.89A12.77,12.77,0,0,1,519,224.26l.67-7.59a6.09,6.09,0,0,1,1.77-3.89c1.65-1.56,4.54-2.53,8.72,2.34l-1.18-8.7a.6.6,0,0,1,1-.5C533.13,209.29,541,217.44,543.88,217.44Z" fill="#f9b499"/>
<path d="M457,100.33c-.19,1.9-.4,5.74.51,8a2.22,2.22,0,0,0,2.11,1.44,2,2,0,0,0,2-1.45.3.3,0,0,1,.55-.07c.66,1.13,2.2,2.56,5.38.18,0,0,3.47,4.63,6.95,0,0,0,4.64,4.63,5.8-1.16V101a3.17,3.17,0,0,0-5.73-1.88.36.36,0,0,1-.07.1s-4.92-3.9-5.94.37c0,0-3.33-3.84-5.65-.37,0,0-2.77-4.62-5-1.48A5.37,5.37,0,0,0,457,100.33Z" fill="#f9b499"/>
<path d="M462.94,99.2a20.32,20.32,0,0,1-.74,9.1,20.49,20.49,0,0,1,.74-9.1Z" fill="#f7a48b"/>
<path d="M468.74,99.2a21.53,21.53,0,0,1-1.16,9.28,21.38,21.38,0,0,1,1.16-9.28Z" fill="#f7a48b"/>
<path d="M474.53,99.2a18.54,18.54,0,0,1,0,8.7,18.67,18.67,0,0,1,0-8.7Z" fill="#f7a48b"/>
<path d="M230.36,312.84a50.59,50.59,0,0,0-21.65-7.46c-3.47-.36-7.42-.26-10.25,1.88a2.13,2.13,0,0,0-1.06,1.88,2.3,2.3,0,0,0,1,1.26,31,31,0,0,0,32,2.44" fill="#0071f2" data-primary="true"/>
<path d="M229.8,312.16a104.15,104.15,0,0,1-14-12.3A35.43,35.43,0,0,1,207,283.65a6.59,6.59,0,0,1,.7-5.42c11.15,8.69,19.91,20,22.06,33.93" fill="#0071f2" data-primary="true"/>
<path d="M230.24,312.7a50.36,50.36,0,0,1,.26-18.36,24.84,24.84,0,0,1,9.78-15.15c1.93,4.5,1.09,9.69-.26,14.4a70.15,70.15,0,0,1-9.7,20.41" fill="#0071f2" data-primary="true"/>
<path d="M241.16,332.28a31.77,31.77,0,0,0-17.37,8.79,32.89,32.89,0,0,0-9.94,17c6.5-.4,12-5,16-10.13s6.77-10.79,11.17-15.63" fill="#0071f2" data-primary="true"/>
<path d="M243.54,335.42a42.8,42.8,0,0,1,4.94-40.49c3.79,13.42,2.4,28.61-4.94,40.49" fill="#0071f2" data-primary="true"/>
<path d="M258,352.6a31,31,0,0,0-29.54,17,2.3,2.3,0,0,0-.19,2.32,2.21,2.21,0,0,0,2,.57c5.84-.37,11-3.88,15.28-7.89s8-8.6,12.69-12.06" fill="#0071f2" data-primary="true"/>
<path d="M257.51,351.66a55.07,55.07,0,0,1-.55-30.8c1.09-4,2.91-8.14,6.58-10A1,1,0,0,1,265,311a1,1,0,0,1,.21.43,18.54,18.54,0,0,1,1.55,8.84,55.14,55.14,0,0,1-1.37,8.95c-1.17,5.47-1.74,11.35-4.78,16.05a30.78,30.78,0,0,0-1.89,3.48c-.58,1.2-.58,1.63-1.1,2.57" fill="#0071f2" data-primary="true"/>
<path d="M295.73,357.35a39.72,39.72,0,0,1,6.95-32.65c.5-.66,1.16-1.35,2-1.27,1.25.11,1.58,1.74,1.53,3a59.13,59.13,0,0,1-10.42,30.89" fill="#0071f2" data-primary="true"/>
<path d="M299.17,359.74a47.55,47.55,0,0,0,39-7.92A31.49,31.49,0,0,0,317,349.2c-7.05,1.6-13.48,4.76-17.87,10.51" fill="#0071f2" data-primary="true"/>
<path d="M302.07,352.53a45,45,0,0,1,35.39-20.44c-1.62,5.68-6.31,10.11-11.57,12.78a64.26,64.26,0,0,1-17,5c-2.26.43-5.35.92-6.83,2.69" fill="#0071f2" data-primary="true"/>
<path d="M296.46,317.74A102.64,102.64,0,0,0,301,297a34.5,34.5,0,0,0-4.12-20.5c-6.84,13.25-7.54,28.71-.61,41.92" fill="#0071f2" data-primary="true"/>
<path d="M319.5,306.1c8-14.56,24.32-26.18,40.86-27.8-6.38,15.86-23.75,28.13-40.86,27.8" fill="#0071f2" data-primary="true"/>
<path d="M314.46,309c12,1.82,22.11,9.43,33.27,14.07a14.89,14.89,0,0,0,7.52,1.42A5.87,5.87,0,0,0,358.93,314a16.09,16.09,0,0,0-5.45-3.32c-12.16-5.06-25.19-5.21-38-2.12" fill="#0071f2" data-primary="true"/>
<path d="M307.56,317.32c2.69.76,3.62,2.17,5.77,4a62.15,62.15,0,0,0,25.22,13c1,.25,2.23.33,2.7-.53s-.11-1.74-.65-2.37A34.71,34.71,0,0,0,325.37,321c-5.82-2.18-10.86-4.78-17.81-4.23" fill="#0071f2" data-primary="true"/>
<path d="M299.76,266.75a47.76,47.76,0,0,0,36.61,12.45,2.59,2.59,0,0,0,1.73-.6c.92-1-.19-2.54-1.27-3.48-10.75-8.37-23.78-11.86-37-8.46" fill="#0071f2" data-primary="true"/>
<path d="M309,263.36a51.09,51.09,0,0,1,45.68-7.54,36.25,36.25,0,0,1-21.77,9.56,68.82,68.82,0,0,1-23.91-2" fill="#0071f2" data-primary="true"/>
<path d="M305.34,240.13c-1.06-10.75-.38-19.23-1.13-30,0-.85-.24-1.89-1-2.2-1.13-.44-2.07,1-2.44,2.1a34.41,34.41,0,0,0,4.59,29.88" fill="#0071f2" data-primary="true"/>
<path d="M304.56,241.31A63.36,63.36,0,0,0,322.35,224c3.47-4.81,6.48-10.58,5.68-16.47a17.05,17.05,0,0,0-12.84,6.36,35.94,35.94,0,0,0-6.53,13.17c-1.43,4.72-2.44,9.59-4.1,14.22" fill="#0071f2" data-primary="true"/>
<path d="M322,236.4a143.43,143.43,0,0,0,43.8-25.82c-5.21-2.1-11.22-.83-16.45,1.27a51.81,51.81,0,0,0-27.57,24.55" fill="#0071f2" data-primary="true"/>
<path d="M309.47,247.19a89.23,89.23,0,0,0,24.32.12c7.89-1.32,15.34-4.45,22.71-7.54a2.77,2.77,0,0,0,1.55-1.18,1.74,1.74,0,0,0-.56-1.93,4.87,4.87,0,0,0-1.95-.92A42.11,42.11,0,0,0,331,237.21a113.18,113.18,0,0,0-21.54,10" fill="#0071f2" data-primary="true"/>
<path d="M263.31,267.11a43.08,43.08,0,0,1-.38-35.59c3.35,5.1,3.75,11.62,3.15,17.7s-2.47,12.33-2.59,18.45" fill="#0071f2" data-primary="true"/>
<path d="M241.29,256a49.58,49.58,0,0,0-36.89,15.64,34.63,34.63,0,0,0,20.21-3.74A104,104,0,0,0,242,256.32" fill="#0071f2" data-primary="true"/>
<path d="M226.48,251c-6.74-.54-13.22-1.37-19.7.61a23.65,23.65,0,0,0-15,12.73,35.37,35.37,0,0,0,18.47-3.47,104.1,104.1,0,0,0,16.24-9.85" fill="#0071f2" data-primary="true"/>
<path d="M248.41,251.27c-6.06-4-12.28-8-19.34-9.64s-15.23-.44-20.15,4.88c5.72,3.35,12.65,3.75,19.27,3.73s14.73,0,21,2.14" fill="#0071f2" data-primary="true"/>
<path d="M248.44,251.6c-10.42-10.18-14.28-28.44-10.11-42.36a64.65,64.65,0,0,1,10.11,42.36" fill="#0071f2" data-primary="true"/>
<path d="M276.93,222.78c1.95-4.55,3.32-9.31,5.08-13.9A39.8,39.8,0,0,1,289.25,196a19.11,19.11,0,0,1,12.84-6.65,51.62,51.62,0,0,1-24.91,33.49" fill="#0071f2" data-primary="true"/>
<path d="M271.84,228.79c-3.23-4.47-6.95-10.42-11.34-13.81s-10.09-5.34-15.44-4.07a36,36,0,0,0,26.78,17.88" fill="#0071f2" data-primary="true"/>
<path d="M272.8,223.14a77.09,77.09,0,0,1-5.11-16.54,25.86,25.86,0,0,1,2.59-16.83c5.7,10.75,7.52,22.29,2.81,33.49" fill="#0071f2" data-primary="true"/>
<path d="M277.06,189.77c3.21-10.65,13-18.5,23.5-22.1a8.92,8.92,0,0,1,4.12-.62,3.6,3.6,0,0,1,3,2.53c.38,1.74-1.11,3.48-2.52,4.64a79.9,79.9,0,0,1-28.14,15.64" fill="#0071f2" data-primary="true"/>
<path d="M277.06,181.05c.41-6.86.85-13.9,3.07-20.34s6.55-12.62,12.8-15.47c1.08,6.95-2,13.9-5.68,19.81s-8.14,11.6-10.42,18.27" fill="#0071f2" data-primary="true"/>
<path d="M276.93,185.79c-2.67-7.76-2.93-17.63-7.59-24.41-3.25-4.72-8.46-7.94-11.26-13a19.74,19.74,0,0,0,.67,14.72,42.15,42.15,0,0,0,8.68,12.31c3.48,3.69,6.39,6.45,9.59,10.34" fill="#0071f2" data-primary="true"/>
<path d="M277.06,414.47c-.21,0-.4-51.79-.4-115.69s.14-115.7.34-115.7.39,51.79.4,115.7S277.19,414.47,277.06,414.47Z" fill="#2f2e41" data-secondary="true"/>
<path d="M322.22,259.29a10.5,10.5,0,0,1-2,.73l-5.35,1.74c-4.52,1.55-10.74,3.77-17.48,6.53s-13,5.22-16.53,8.31a11.93,11.93,0,0,0-3.32,4.39c-.52,1.22-.61,2-.68,1.95s0-.19,0-.54a7.11,7.11,0,0,1,.38-1.51,11.76,11.76,0,0,1,3.25-4.54,28.67,28.67,0,0,1,7.18-4.46c2.86-1.34,6.06-2.75,9.43-4.13,6.76-2.77,13-4.92,17.58-6.35,2.29-.71,4.15-1.23,5.45-1.58A12.39,12.39,0,0,1,322.22,259.29Z" fill="#2f2e41" data-secondary="true"/>
<path d="M337.1,222.85a3.13,3.13,0,0,1-.56.59L334.89,225l-6.22,5.63L308,249c-8.06,7.17-15,14-19.85,19.19-2.42,2.58-4.31,4.71-5.61,6.21L281,276.16a2.92,2.92,0,0,1-.55.56,3,3,0,0,1,.45-.66,21.55,21.55,0,0,1,1.39-1.74c1.23-1.54,3.07-3.73,5.45-6.37a264.16,264.16,0,0,1,19.76-19.41c8.08-7.16,15.44-13.58,20.84-18.22l6.38-5.46,1.74-1.46A2.67,2.67,0,0,1,337.1,222.85Z" fill="#2f2e41" data-secondary="true"/>
<path d="M299.31,256.32c-.21-.1,1.48-4,3.16-8.91s2.49-9.07,2.71-9a30.88,30.88,0,0,1-2,9.28,63.38,63.38,0,0,1-2.52,6.23A8.89,8.89,0,0,1,299.31,256.32Z" fill="#2f2e41" data-secondary="true"/>
<path d="M277.06,287.68a12.08,12.08,0,0,1-1.24-1.44l-3.18-4.08c-2.67-3.48-6.37-8.24-10.51-13.45s-7.95-9.9-10.72-13.31l-3.24-4a8.67,8.67,0,0,1-1.13-1.55,9.64,9.64,0,0,1,1.35,1.36c.82.9,2,2.22,3.48,3.87,2.86,3.3,6.74,7.94,10.89,13.17s7.78,10.06,10.42,13.59c1.29,1.73,2.31,3.21,3,4.24A8.15,8.15,0,0,1,277.06,287.68Z" fill="#2f2e41" data-secondary="true"/>
<path d="M267.1,274.93a18.15,18.15,0,0,1-4.15-7.78,22.47,22.47,0,0,1-1-7.86h.33c-.14.6-.24.91-.31.91s0-.35,0-1h.33a36.15,36.15,0,0,0,1.32,7.65A60,60,0,0,0,267.1,274.93Z" fill="#2f2e41" data-secondary="true"/>
<path d="M254.28,258.81a12.55,12.55,0,0,0-2.9-1.74,19.27,19.27,0,0,0-8.06-.64,50.41,50.41,0,0,0-8.11,1.32,25.75,25.75,0,0,1-3.34.8,10.93,10.93,0,0,1,3.2-1.32,37.35,37.35,0,0,1,8.2-1.55,17.71,17.71,0,0,1,8.32.9A5.09,5.09,0,0,1,254.28,258.81Z" fill="#2f2e41" data-secondary="true"/>
<path d="M251.26,254.9c0,.12-1.74-.68-4.45-1.62a45,45,0,0,0-22.43-1.73c-2.86.5-4.6,1-4.64.92a4.32,4.32,0,0,1,1.19-.51,29.09,29.09,0,0,1,3.35-.93,39.18,39.18,0,0,1,11.48-.8A39.7,39.7,0,0,1,247,252.75a30.32,30.32,0,0,1,3.18,1.44A5.3,5.3,0,0,1,251.26,254.9Z" fill="#2f2e41" data-secondary="true"/>
<path d="M276.93,238.38a89.89,89.89,0,0,1-3.24-11.26,87.92,87.92,0,0,1-2.52-11.45,91.66,91.66,0,0,1,3.25,11.26A95,95,0,0,1,276.93,238.38Z" fill="#2f2e41" data-secondary="true"/>
<path d="M277.14,238.38a55.05,55.05,0,0,0-3.59-6.74,29.47,29.47,0,0,0-5.3-5.46,5,5,0,0,1,2.05,1,16.92,16.92,0,0,1,3.85,4A15,15,0,0,1,277.14,238.38Z" fill="#2f2e41" data-secondary="true"/>
<path d="M277.06,386.86s-.25-1.25-.82-3.47a49.32,49.32,0,0,0-3.48-9,123.19,123.19,0,0,0-18.36-25.86c-4.1-4.69-8.08-9.11-11.45-13.34a95.07,95.07,0,0,1-8.2-11.82,58,58,0,0,1-4.13-8.68c-.38-1.08-.66-1.92-.82-2.51a6.63,6.63,0,0,1-.21-.88s.46,1.18,1.31,3.28a63.91,63.91,0,0,0,4.32,8.69,96.92,96.92,0,0,0,8.27,11.64c3.39,4.18,7.37,8.58,11.49,13.27a118.67,118.67,0,0,1,18.27,26.15,44.18,44.18,0,0,1,3.27,9.13,23,23,0,0,1,.45,2.59A5.44,5.44,0,0,1,277.06,386.86Z" fill="#2f2e41" data-secondary="true"/>
<path d="M317.88,340.63a17.24,17.24,0,0,1-2.14,1.2,49,49,0,0,0-5.55,3.68,63.1,63.1,0,0,0-7.3,6.66c-2.57,2.71-5.21,5.85-7.91,9.22-5.38,6.76-10.42,12.75-13.44,17.53-1.53,2.36-2.64,4.36-3.37,5.77a23.49,23.49,0,0,1-1.18,2.15,1.51,1.51,0,0,1,.19-.6c.19-.39.38-1,.73-1.74a55.35,55.35,0,0,1,3.18-5.93,198.36,198.36,0,0,1,13.34-17.63c2.71-3.37,5.38-6.51,8-9.22a58.07,58.07,0,0,1,7.49-6.61,38.32,38.32,0,0,1,5.73-3.47,15.34,15.34,0,0,1,1.74-.75A3,3,0,0,1,317.88,340.63Z" fill="#2f2e41" data-secondary="true"/>
<path d="M318.75,355.64a34.83,34.83,0,0,1-4.53.66,60.43,60.43,0,0,0-10.76,2.12,33,33,0,0,0-9.62,5c-2.23,1.74-3.27,3.14-3.37,3.06a3.44,3.44,0,0,1,.67-1,17.48,17.48,0,0,1,2.37-2.42,29.05,29.05,0,0,1,9.73-5.35,48.2,48.2,0,0,1,10.92-1.93A24.28,24.28,0,0,1,318.75,355.64Z" fill="#2f2e41" data-secondary="true"/>
<path d="M291.74,365c-.23-.13,1.73-3.24,3.47-7.45s1.74-7.94,2.1-7.9a7.92,7.92,0,0,1-.08,2.43,26.21,26.21,0,0,1-1.33,5.73,26.48,26.48,0,0,1-2.62,5.21A7.28,7.28,0,0,1,291.74,365Z" fill="#2f2e41" data-secondary="true"/>
<path d="M331.14,300.42a4.22,4.22,0,0,1-.73.38l-2.12,1c-.94.4-2.07.9-3.36,1.58s-2.76,1.34-4.32,2.28L318.14,307a29.29,29.29,0,0,0-2.6,1.73c-1.74,1.12-3.65,2.47-5.6,3.86a96.15,96.15,0,0,0-21.56,22.31c-1.32,2-2.62,3.87-3.66,5.73-.54.92-1.1,1.74-1.55,2.66s-.9,1.74-1.32,2.52c-.89,1.58-1.51,3.09-2.14,4.39s-1.09,2.45-1.46,3.48l-.9,2.15a5.12,5.12,0,0,1-.35.75,2.7,2.7,0,0,1,.21-.8l.77-2.21c.33-1,.76-2.13,1.35-3.47s1.18-2.87,2-4.48c.42-.82.86-1.74,1.29-2.56s1-1.73,1.53-2.71c1-1.87,2.31-3.77,3.63-5.8a93,93,0,0,1,21.71-22.46c2-1.39,3.83-2.73,5.69-3.82.9-.56,1.73-1.13,2.64-1.62l2.52-1.37c1.58-.92,3.09-1.57,4.39-2.19a35.54,35.54,0,0,1,3.48-1.48l2.18-.83A2.27,2.27,0,0,1,331.14,300.42Z" fill="#2f2e41" data-secondary="true"/>
<path d="M298.75,322.1a5.32,5.32,0,0,1,1.74-2.64,11.22,11.22,0,0,1,7.18-2.77,19.94,19.94,0,0,1,7.54,1.48,11.65,11.65,0,0,1,2.86,1.39,18.21,18.21,0,0,1-3-.89,23.27,23.27,0,0,0-7.35-1.23,11.7,11.7,0,0,0-6.84,2.42A24.62,24.62,0,0,0,298.75,322.1Z" fill="#2f2e41" data-secondary="true"/>
<path d="M293.92,327.1a27.59,27.59,0,0,0,2-6.64,27,27,0,0,0-.45-6.95,4.44,4.44,0,0,1,.83,1.93,13.38,13.38,0,0,1,.36,5.08,13.84,13.84,0,0,1-1.51,4.86C294.55,326.56,294,327.15,293.92,327.1Z" fill="#2f2e41" data-secondary="true"/>
<path d="M312.7,394.28c-.88,17.86-5.43,35.79-12.58,53.76a247.14,247.14,0,0,1-54.2-25.25,141.06,141.06,0,0,1-4.72-28.51Z" fill="#2f2e41" data-secondary="true"/>
<path d="M306.19,426.32c0,.21-13.13.38-29.34.38-10.41,0-19.55-.07-24.76-.19a7.44,7.44,0,0,1-.66-.38c5.08-.11,14.56-.18,25.42-.18C293.06,426,306.19,426.11,306.19,426.32Z" fill="#fafafa"/>
<path d="M258.1,407.27a110.59,110.59,0,0,1,0,18.38A117.48,117.48,0,0,1,258.1,407.27Z" fill="#fafafa"/>
<path d="M279.49,407.27a124.4,124.4,0,0,1,0,19.11A117.24,117.24,0,0,1,279.49,407.27Z" fill="#fafafa"/>
<path d="M299.64,407.12a123.44,123.44,0,0,1,0,19.42A128.46,128.46,0,0,1,299.64,407.12Z" fill="#fafafa"/>
<path d="M311.38,407.27c0,.21-15.41.39-34.41.39s-34.42-.18-34.42-.39,15.41-.36,34.42-.36S311.38,407.07,311.38,407.27Z" fill="#fafafa"/>
</svg>